<svg width="57" height="95" xmlns="http://www.w3.org/2000/svg" xmlns:xlink="http://www.w3.org/1999/xlink"><defs><path id="a" d="M0 93.71h56.693V0H0z"/></defs><g transform="translate(0 .5)" fill="none" fill-rule="evenodd"><path d="M7.218 67.04h.513c.48 0 .838-.096 1.076-.285.238-.19.357-.465.357-.827 0-.366-.099-.636-.299-.81-.199-.175-.512-.262-.938-.262h-.709v2.183zm3.521-1.168c0 .791-.248 1.396-.742 1.815-.495.42-1.198.63-2.11.63h-.669v2.615H5.66V63.58h2.35c.891 0 1.57.191 2.033.575.465.385.697.957.697 1.718zm3.891-.669c.208 0 .38.016.518.045l-.115 1.438a1.784 1.784 0 0 0-.452-.049c-.49 0-.871.126-1.144.377-.274.252-.41.603-.41 1.056v2.862h-1.534v-5.624h1.16l.227.946h.075c.175-.315.41-.569.707-.762a1.75 1.75 0 0 1 .968-.289m2.307 2.907c0 .558.09.979.274 1.264.183.284.48.426.893.426.409 0 .703-.141.882-.424.18-.284.269-.705.269-1.265 0-.557-.09-.974-.271-1.253-.181-.277-.478-.417-.89-.417-.41 0-.704.139-.886.415-.181.276-.271.695-.271 1.255m3.887 0c0 .915-.241 1.63-.723 2.147-.483.517-1.156.775-2.018.775-.54 0-1.015-.118-1.428-.355a2.359 2.359 0 0 1-.95-1.018c-.222-.443-.332-.96-.332-1.55 0-.918.239-1.632.719-2.142.479-.51 1.154-.764 2.022-.764.54 0 1.016.117 1.428.352.413.235.729.572.95 1.01.222.44.332.955.332 1.545m1.953-.961c0 .306.07.547.21.725.138.177.35.266.635.266.29 0 .5-.09.634-.266.134-.178.201-.42.201-.725 0-.677-.279-1.016-.835-1.016-.563 0-.845.339-.845 1.016zm-.559 4.577c0 .21.102.377.305.498.203.12.487.18.853.18.55 0 .98-.074 1.293-.226.311-.15.467-.356.467-.618 0-.212-.092-.357-.277-.437-.185-.081-.469-.121-.854-.121h-.795c-.282 0-.518.066-.707.199a.61.61 0 0 0-.285.525zm4.341-6.418v.78l-.88.226c.161.252.242.533.242.846 0 .603-.21 1.073-.63 1.41-.422.337-1.007.506-1.754.506l-.277-.016-.226-.025c-.158.12-.236.255-.236.402 0 .222.281.332.844.332h.955c.618 0 1.088.133 1.411.398.324.264.486.654.486 1.167 0 .657-.275 1.167-.822 1.529-.548.36-1.335.543-2.362.543-.784 0-1.384-.137-1.798-.41a1.303 1.303 0 0 1-.62-1.15 1.2 1.2 0 0 1 .316-.85c.212-.227.521-.39.93-.488a1.013 1.013 0 0 1-.412-.33.783.783 0 0 1-.176-.484c0-.215.062-.393.186-.535a2.14 2.14 0 0 1 .538-.42 1.512 1.512 0 0 1-.7-.614 1.866 1.866 0 0 1-.26-.996c0-.614.2-1.087.598-1.423.4-.335.97-.503 1.71-.503a4.3 4.3 0 0 1 .561.043c.216.028.355.049.414.062h1.962zm3.639-.106c.207 0 .38.016.518.045l-.116 1.438a1.787 1.787 0 0 0-.453-.049c-.489 0-.87.126-1.144.377-.273.252-.409.603-.409 1.056v2.862H27.06v-5.624h1.162l.226.946h.076a2.11 2.11 0 0 1 .706-.762c.297-.192.62-.289.97-.289m4.1 3.123l-.593.021c-.445.013-.777.093-.995.241-.22.147-.327.372-.327.674 0 .432.248.65.744.65.356 0 .64-.104.853-.309.213-.204.319-.475.319-.814v-.463zm.453 2.605l-.296-.764h-.041c-.258.325-.523.551-.797.677-.273.126-.63.188-1.068.188-.54 0-.965-.154-1.275-.463-.31-.308-.465-.747-.465-1.317 0-.597.209-1.037.626-1.32.418-.284 1.047-.44 1.888-.47l.976-.03v-.248c0-.569-.292-.854-.875-.854-.45 0-.978.136-1.584.407l-.51-1.036a4.572 4.572 0 0 1 2.155-.508c.753 0 1.332.164 1.734.493.402.328.603.828.603 1.498v3.747h-1.071zm7.198.001h-1.534v-3.284c0-.405-.068-.71-.203-.913-.136-.202-.35-.304-.642-.304-.392 0-.677.144-.854.433-.178.288-.267.762-.267 1.422v2.646h-1.534v-5.623h1.172l.206.72h.086c.15-.26.368-.46.653-.607.285-.145.612-.22.98-.22.842 0 1.413.277 1.71.827h.136a1.52 1.52 0 0 1 .667-.61c.293-.143.624-.216.993-.216.637 0 1.12.165 1.447.49.326.328.49.852.49 1.573v3.666h-1.539v-3.284c0-.405-.069-.71-.204-.913-.136-.202-.35-.304-.64-.304-.377 0-.657.134-.844.402-.186.268-.279.694-.279 1.278v2.82zm7.71-2.606l-.594.021c-.445.013-.777.093-.995.241-.219.147-.327.372-.327.674 0 .432.248.65.744.65.356 0 .64-.104.853-.309.213-.204.32-.475.32-.814v-.463zm.452 2.605l-.296-.764h-.04c-.259.325-.524.551-.798.677-.273.126-.629.188-1.068.188-.54 0-.965-.154-1.275-.463-.31-.308-.465-.747-.465-1.317 0-.597.21-1.037.626-1.32.418-.284 1.047-.44 1.888-.47l.976-.03v-.248c0-.569-.292-.854-.875-.854-.449 0-.978.136-1.584.407l-.509-1.036a4.572 4.572 0 0 1 2.154-.508c.753 0 1.332.164 1.734.493.402.328.603.828.603 1.498v3.747h-1.07zM5.749 82.27l-1.771-5.768h-.044c.063 1.174.095 1.956.095 2.349v3.42H2.636v-7.353h2.122l1.74 5.623h.03l1.846-5.623h2.123v7.353H9.043v-3.48c0-.165.003-.354.008-.57.005-.213.028-.783.068-1.71h-.046l-1.896 5.76H5.749zm10.005 0l-.207-.718h-.08a1.622 1.622 0 0 1-.7.606 2.393 2.393 0 0 1-1.03.214c-.662 0-1.159-.177-1.495-.531-.335-.354-.503-.863-.503-1.526v-3.667h1.535v3.284c0 .406.072.71.217.913.143.203.373.305.689.305.428 0 .739-.144.93-.431.19-.286.287-.761.287-1.426v-2.645h1.533v5.623h-1.176zm7.481 0h-1.534v-3.283c0-.405-.072-.71-.216-.913-.145-.202-.374-.304-.689-.304-.429 0-.74.144-.93.43-.192.287-.287.76-.287 1.425v2.646h-1.534v-5.623h1.171l.206.72h.086c.171-.272.407-.478.706-.617.3-.14.642-.21 1.024-.21.654 0 1.15.178 1.49.532.337.354.507.864.507 1.532v3.666zm3.465-1.12c.393 0 .68-.114.862-.343.183-.227.284-.615.3-1.161v-.166c0-.603-.093-1.036-.279-1.298-.187-.261-.488-.392-.908-.392a.9.9 0 0 0-.797.435c-.19.29-.284.712-.284 1.265 0 .554.095.968.287 1.245.19.276.464.415.82.415m-.539 1.222c-.66 0-1.18-.257-1.557-.77s-.565-1.223-.565-2.133c0-.922.191-1.64.575-2.154.385-.515.913-.772 1.587-.772.708 0 1.248.275 1.62.825h.05a6.276 6.276 0 0 1-.115-1.122v-1.8h1.54v7.825h-1.179l-.296-.73h-.065c-.349.554-.88.83-1.595.83" fill="#000"/><mask id="b" fill="#fff"><use xlink:href="#a"/></mask><path d="M30.415 82.271h1.534v-5.623h-1.534v5.623zm-.065-7.077c0-.5.278-.749.835-.749.556 0 .835.25.835.75 0 .238-.07.422-.209.555-.139.133-.348.198-.626.198-.557 0-.835-.25-.835-.754zm5.832 4.471l-.594.021c-.445.013-.777.093-.995.241-.22.147-.327.372-.327.674 0 .432.248.65.744.65.356 0 .64-.104.853-.309.213-.204.319-.475.319-.814v-.463zm.452 2.605l-.296-.764h-.041c-.258.325-.523.551-.797.677-.273.126-.63.188-1.068.188-.54 0-.965-.154-1.275-.463-.31-.308-.465-.747-.465-1.317 0-.597.209-1.037.626-1.32.418-.284 1.047-.44 1.888-.47l.976-.03v-.248c0-.569-.292-.854-.875-.854-.45 0-.978.136-1.584.407l-.51-1.036a4.572 4.572 0 0 1 2.155-.508c.753 0 1.332.164 1.734.493.402.328.603.828.603 1.498v3.747h-1.071zm2.167.001h1.534v-7.825h-1.534zm7.149-1.121c.392 0 .68-.114.861-.343.183-.227.284-.615.3-1.161v-.166c0-.603-.093-1.036-.279-1.298-.187-.261-.488-.392-.908-.392a.9.9 0 0 0-.797.435c-.19.29-.284.712-.284 1.265 0 .554.095.968.287 1.245.19.276.464.415.82.415m-.539 1.222c-.66 0-1.18-.257-1.557-.77s-.565-1.223-.565-2.133c0-.922.191-1.64.575-2.154.385-.515.913-.772 1.587-.772.708 0 1.248.275 1.62.825h.05a6.276 6.276 0 0 1-.115-1.122v-1.8h1.54v7.825h-1.179l-.296-.73h-.065c-.349.554-.88.83-1.595.83m6.62-4.737c-.325 0-.58.103-.764.309-.184.207-.29.499-.317.878h2.152c-.007-.379-.105-.671-.296-.878-.19-.206-.45-.309-.775-.309m.217 4.737c-.905 0-1.613-.25-2.122-.749-.51-.5-.765-1.207-.765-2.123 0-.941.235-1.67.706-2.184.472-.515 1.123-.773 1.954-.773.795 0 1.413.227 1.856.679.443.453.664 1.078.664 1.876v.745h-3.626c.016.436.145.775.387 1.021.242.245.581.367 1.016.367.34 0 .66-.035.961-.106.302-.07.616-.182.945-.337v1.187a3.575 3.575 0 0 1-.86.3 5.452 5.452 0 0 1-1.116.097M8.46 90.552a593.61 593.61 0 0 1-.834-2.69 7.66 7.66 0 0 1-.133-.494c-.11.429-.427 1.491-.95 3.184h1.916zm.904 3.058l-.533-1.75h-2.68l-.534 1.75H3.938l2.595-7.383h1.905l2.606 7.383h-1.68zm2.191 0h1.534v-7.826h-1.534zm2.659 0h1.534v-5.624h-1.534v5.623zm-.066-7.077c0-.5.278-.749.835-.749.557 0 .835.25.835.75 0 .237-.07.422-.209.555-.139.133-.348.198-.626.198-.557 0-.835-.25-.835-.754zm7.757 7.077h-1.533v-3.284c0-.405-.069-.71-.203-.913-.137-.202-.35-.304-.643-.304-.392 0-.677.144-.854.433-.178.288-.267.762-.267 1.422v2.646h-1.534v-5.623h1.172l.206.72h.086c.151-.26.37-.46.653-.607.286-.145.612-.22.981-.22.842 0 1.413.277 1.71.827h.136c.151-.262.373-.465.666-.61a2.24 2.24 0 0 1 .994-.216c.637 0 1.12.165 1.446.49.326.328.49.852.49 1.573v3.666h-1.539v-3.284c0-.405-.069-.71-.203-.913-.137-.202-.35-.304-.64-.304-.378 0-.657.134-.845.402-.185.268-.279.694-.279 1.278v2.82zm6.96-4.637c-.325 0-.58.103-.764.309-.184.207-.29.499-.317.878h2.152c-.007-.38-.105-.671-.296-.878-.19-.206-.45-.31-.775-.31m.217 4.738c-.905 0-1.613-.25-2.122-.75-.51-.5-.765-1.206-.765-2.122 0-.941.235-1.67.706-2.184.472-.515 1.123-.773 1.954-.773.795 0 1.413.227 1.856.679.443.453.664 1.078.664 1.876v.745H27.75c.016.436.145.775.387 1.02.242.246.581.368 1.016.368.34 0 .66-.035.961-.106.302-.07.616-.182.945-.337v1.187a3.575 3.575 0 0 1-.86.3 5.452 5.452 0 0 1-1.116.097m8.327-.1h-1.534v-3.284c0-.405-.072-.71-.216-.913-.145-.202-.374-.304-.689-.304-.429 0-.74.144-.93.43-.192.287-.287.76-.287 1.425v2.646H32.22v-5.623h1.171l.206.72h.086c.171-.272.407-.478.706-.617.3-.14.642-.21 1.024-.21.654 0 1.15.178 1.49.532.337.354.507.864.507 1.532v3.666zm3.454-1.121c.268 0 .59-.06.965-.178v1.142c-.382.171-.852.257-1.408.257-.614 0-1.06-.155-1.34-.464-.28-.311-.42-.776-.42-1.396v-2.712h-.735v-.648l.845-.513.443-1.187h.981v1.197h1.574v1.151h-1.574v2.712c0 .218.061.379.184.483a.728.728 0 0 0 .485.156m2.841-1.701c0 .557.092.978.274 1.263.183.284.481.426.893.426.41 0 .703-.14.883-.424.18-.284.27-.705.27-1.265 0-.557-.09-.974-.272-1.253-.182-.277-.479-.417-.89-.417-.41 0-.705.14-.886.415-.18.276-.272.695-.272 1.255m3.888 0c0 .915-.242 1.631-.724 2.147-.483.517-1.155.775-2.017.775-.54 0-1.016-.118-1.428-.355a2.353 2.353 0 0 1-.95-1.018c-.222-.443-.332-.959-.332-1.549 0-.919.24-1.633.718-2.143.48-.509 1.154-.764 2.023-.764.54 0 1.015.117 1.427.352.413.235.73.572.951 1.011.221.44.332.954.332 1.544m4.77 1.152c0 .577-.2 1.016-.6 1.318-.402.3-1 .453-1.799.453-.409 0-.758-.028-1.046-.084a3.913 3.913 0 0 1-.81-.244v-1.267c.285.135.607.247.963.338.357.09.672.135.943.135.557 0 .835-.161.835-.483a.406.406 0 0 0-.11-.294 1.623 1.623 0 0 0-.383-.257 9.81 9.81 0 0 0-.723-.334c-.433-.181-.75-.348-.954-.503a1.418 1.418 0 0 1-.443-.531 1.748 1.748 0 0 1-.138-.736c0-.5.194-.886.581-1.16.387-.273.936-.41 1.647-.41a4.67 4.67 0 0 1 1.976.443l-.462 1.106a9.126 9.126 0 0 0-.789-.297 2.528 2.528 0 0 0-.75-.115c-.453 0-.679.122-.679.367 0 .138.073.257.22.358.145.1.464.249.957.447.44.178.761.344.965.498.205.154.356.332.453.533.097.2.146.44.146.719M35.762 3.696h.548c.512 0 .894-.102 1.15-.304.253-.203.38-.498.38-.883 0-.39-.106-.678-.319-.865-.214-.186-.547-.28-1.002-.28h-.757v2.331zm3.76-1.247c0 .846-.265 1.492-.793 1.939-.528.449-1.279.671-2.253.671h-.714v2.793h-1.665V0h2.508c.952 0 1.677.204 2.172.616.497.41.745 1.02.745 1.834zm-9.537 5.404h-1.638V0h4.501v1.363h-2.863V3.39h2.664v1.36h-2.664v3.104zm-4.525 0h-1.896l-1.063-4.125c-.04-.148-.107-.45-.202-.91a10.151 10.151 0 0 1-.163-.927 12.42 12.42 0 0 1-.162.931c-.086.429-.152.735-.198.917l-1.058 4.114h-1.89L16.823 0h1.638l1.004 4.285c.175.792.302 1.478.381 2.058.022-.204.071-.52.148-.947.077-.43.15-.761.218-.997L21.357 0h1.573l1.144 4.4c.051.196.113.497.188.9.076.407.133.753.172 1.043.036-.28.093-.628.172-1.045.08-.415.151-.753.215-1.013l1-4.285h1.637L25.46 7.853zm-4.073 27.313c-3.05 0-5.009.724-5.543.949-.032.014-.058-.032-.034-.056 3.353-3.485 7.28-3.293 8.223-3.293h11.162c.562 0 1.018.537 1.018 1.2 0 .663-.456 1.2-1.018 1.2H21.387zm2.515 3.085c-3.287 0-4.246-1.868-9.222-.636-.034.01-.057-.038-.028-.058 2.774-1.903 5.791-1.73 7.011-1.73h13.532c.562 0 1.018.538 1.018 1.2 0 .661-.456 1.198-1.018 1.198 0 0-8.69.026-11.293.026zm.233 3.037c-3.374 0-3.644-2.49-8.646-3.051-.035-.005-.039-.056-.005-.065 4.11-1.027 5.638.716 8.037.716h11.674c.562 0 1.018.537 1.018 1.2 0 .663-.456 1.2-1.018 1.2h-11.06zm-.732-9.183c-2.717 0-4.968 1.184-5.495 1.484-.029.016-.059-.02-.04-.047.44-.648 2.82-3.837 6.91-3.837h10.417c.562 0 1.018.538 1.018 1.2 0 .662-.456 1.2-1.018 1.2H23.403zm14.941-6.625a.756.756 0 0 0-.444-.206.74.74 0 0 0-.362.043c.047-.099.087-.204.102-.33a.843.843 0 0 0-.084-.511c-.336-.738.625-2.21.504-2.275-.115-.064-.66 1.56-1.19 2.215a.926.926 0 0 0-.2.49.915.915 0 0 0 .086.513c.073.131.186.226.318.233a.295.295 0 0 0 .107-.006.222.222 0 0 0-.018.06.455.455 0 0 0 .141.387.72.72 0 0 0 .441.207.771.771 0 0 0 .494-.093c.72-.393 2.21-.78 2.178-.919-.029-.137-1.483.715-2.073.192zm1.1-1.075a.636.636 0 0 0-.407-.199.657.657 0 0 0-.268.044c.013-.047.032-.085.037-.131a.726.726 0 0 0-.103-.462c-.364-.677.588-1.956.465-2.02-.123-.064-.646 1.369-1.176 1.934a.69.69 0 0 0-.197.425.772.772 0 0 0 .1.466c.084.122.2.21.34.229a.527.527 0 0 0 .177-.021c-.003.006-.01.017-.008.025a.524.524 0 0 0 .14.398c.1.108.243.181.404.195a.623.623 0 0 0 .433-.116c.62-.448 2.036-.713 2-.857-.035-.138-1.39.611-1.937.09zm.963-.992a.552.552 0 0 0-.389-.105.536.536 0 0 0-.196.052c.01-.03.028-.055.04-.084a.7.7 0 0 0-.025-.43c-.23-.665.793-1.648.693-1.727-.1-.075-.764 1.116-1.31 1.535a.652.652 0 0 0-.23.355.635.635 0 0 0 .021.427.436.436 0 0 0 .265.256c.091.029.183.01.27-.027a.41.41 0 0 0-.024.17c.013.136.08.25.186.33a.573.573 0 0 0 .754-.067c.49-.497 1.714-.962 1.664-1.081-.053-.12-1.153.765-1.719.396zm1.895-2.134c-.103-.151-.958.787-1.59.877a.669.669 0 0 0-.36.178.698.698 0 0 0-.22.36.376.376 0 0 0 .054.325.325.325 0 0 0 .3.109.64.64 0 0 0 .364-.181.739.739 0 0 0 .215-.355c.192-.644 1.313-1.215 1.237-1.313zm-17.694 1.27c-.027.093-.21.816-.21.816-.053.029-.273-.02-.33-.024-.424-.04-.8-.408-.639-.846.133-.358.404-.396.75-.412.141-.005.398.029.527.118 0 0-.05.165-.098.348zm-.486 2.181l-.039.247c-.262-.165-.418-.541-.292-.84.097-.226.338-.285.515-.294-.063.294-.126.59-.184.887zm-.378 2.697c-.033.186-.283.21-.454.26-.496.15-.966.085-1.118-.508-.165-.633.315-.9.83-1.024.281-.067.54-.012.732.226.048.058.105.111.118.168 0 0-.077.704-.108.878zm-1.56-3.122c.382-.093.778-.236 1.072.14.31.396.208 1.032-.29 1.2-.329.11-.725.207-1.006-.061-.368-.351-.342-1.148.223-1.28zm-.377-2.056c.405-.098.822-.247 1.132.149.323.413.215 1.084-.307 1.259-.347.113-.764.215-1.058-.067-.386-.366-.357-1.203.233-1.341zm-.375 4.445c-.105.37-.409.425-.73.502-.21-.258-.773-.91-.783-.987a.203.203 0 0 1 .012-.09c.026-.076.116-.15.181-.194.192-.125.601-.216.821-.172.397.085.604.569.5.94zm-2.005-1.9c-.289-1.024 1.428-1.47 1.693-.466.273 1.032-1.459 1.47-1.693.466zm-.252-2.044c-.294-1.017 1.43-1.463 1.695-.465.273 1.035-1.462 1.473-1.695.465zm-.24-2.009c-.282-.947 1.337-1.367 1.584-.433.254.962-1.365 1.378-1.585.433zm-.167 3.867c-.08.047-.109.072-.136.072l-.77-.837a2.37 2.37 0 0 1 .326-.242c.641-.357 1.168.662.58 1.008zm-1.462-1.887c-.38-.84 1.006-1.75 1.426-.845.385.834-1 1.761-1.426.845zm1.166-2.66c.438.78-.882 1.648-1.26.81-.336-.721.837-1.564 1.26-.81zm-1.107-1.814c.194-.172.42-.265.65-.154.37.177.381.733.058.954-.147.1-.396.226-.578.18-.396-.1-.472-.678-.13-.98zm.05-1.67c.16-.108.372-.205.555-.13.335.137.323.623.053.817-.123.088-.346.197-.496.157-.339-.085-.422-.634-.113-.843zM18.3 14.2c.2-.107.486-.15.664.049a.468.468 0 0 1-.134.734c-.212.106-.498.146-.666-.051a.48.48 0 0 1 .136-.731zm-.157 1.807c-.16-.595.842-.876 1.005-.27.181.587-.845.88-1.005.27zm1.617 1.04c.233.643-.856 1.006-1.069.372-.218-.643.877-1.01 1.07-.372zm.136-3.133c.208-.084.474-.174.706 0 .288.216.225.701-.105.852-.218.098-.496.165-.69-.007-.247-.22-.26-.705.09-.845zm-.192 5.38c-.294.07-.6.187-.845-.066-.312-.322-.223-.884.2-1.038.273-.105.62-.163.842.066.286.293.255.93-.197 1.039zm.006-3.284c-.189-.638.85-.965 1.05-.345.204.635-.872.973-1.05.345zm1.74 1.17c.244.728-.987 1.116-1.213.399-.228-.735 1.01-1.122 1.212-.4zm.065-1.95c.217-.058.446-.037.612.14.252.27.165.733-.208.803-.176.031-.446.018-.582-.102-.247-.218-.235-.73.178-.841zm1.05 1.527c.396 0 .595.582.365.872-.139.174-.439.186-.643.154-.378-.058-.62-.544-.365-.875.155-.198.42-.15.643-.15zm-1.903 2.398c-.244-.838 1.18-1.212 1.396-.381.221.845-1.21 1.216-1.396.38zm.871 1.07c.39-.04.793-.13 1.032.276.25.43.063 1.029-.44 1.13-.332.069-.733.1-.969-.192-.31-.389-.187-1.162.377-1.214zm1.975-1.864c.48.198.642.764.303 1.08-.18.165-.51.133-.734.087-.446-.088-.738-.758-.347-1.076.201-.163.56-.183.778-.091zm.755 2.018c.302.37.19 1.023-.338 1.055-.276.015-.636-.017-.822-.242-.299-.361-.186-1.038.341-1.057.275-.012.632.018.82.244zm2.04-6.665a.12.12 0 0 0-.135-.05c-.063.021-.105.09-.08.152 1.203 3.236-.334 4.83-.977 7.097-.772-1.841 1.784-3.573.467-6.93-.019-.042-.053-.077-.1-.084-.066-.01-.129.018-.139.106-.034.236-.189 2.095-1.698 3.185a3.015 3.015 0 0 0-.703-1.02c-.139-.628-.549-1.489-1.41-1.744-.128-.324-.388-.789-.887-1.039-.469-.232-1.013-.211-1.616.062-.73.085-1.23.37-1.496.845-.249.449-.205.938-.12 1.27-.615.656-.644 1.629-.628 2.008-.365.877-.16 1.9-.045 2.325-.435 1.191-.01 2.346.16 2.73 0 .104.006.201.011.3-1.428-1.563-4.677-3.497-5.918-4.235a.15.15 0 0 0-.182.02.154.154 0 0 0-.007.219c2.77 2.7 5.238 6.032 7.61 12.945 1.184-1.23 3.323-2.849 6.367-2.849h3.562c-2.263-8.427 1.031-11.444-2.037-15.313zm16.834 4.359c-.65-.17-4.807-.906-9.466 7.663.68-3.191 2.745-7.052 3.312-8.174v-.008a.153.153 0 0 0-.042-.19.134.134 0 0 0-.189.034c-3.078 5.133-4.159 8.09-4.797 11.63h1.93c.327-3.413 4.636-11.45 9.23-10.853h.004c.026.006.05-.015.053-.04a.048.048 0 0 0-.035-.063zm-9.26 28.232l-1.043-4.355H31.06c.281 1.105.682 2.229 1.202 3.215.034.057.097.093.16.082a.165.165 0 0 0 .134-.19c-.12-.921-.265-1.81-.4-2.698.374 1.395.88 2.758 1.563 4.013.018.038.057.056.094.044.05-.01.076-.063.063-.111zm1.792-1.977c-.18-.728-.37-1.621-.533-2.378h-.675c.263.808.617 1.709.932 2.479.032.075.102.111.171.093a.16.16 0 0 0 .105-.194zm.225 2.56l-.005-.01c-.218-.608-.52-1.154-.758-1.738a22.778 22.778 0 0 1-.706-1.758 21.19 21.19 0 0 1-.49-1.432h-.652c.184.544.422 1.132.645 1.657.491 1.188 1.058 2.352 1.78 3.393a.103.103 0 0 0 .123.035c.058-.021.084-.087.063-.146zm.974-20.9c-.05-.074-.17-.09-.229-.03a13.365 13.365 0 0 0-2.146 3.07h.703c.352-.826 1.145-2.286 1.653-2.812l.006-.005c.052-.059.063-.157.013-.223zm-5.354-6.044c.651-1.07 1.617-1.888 2.435-2.876a.097.097 0 0 0-.007-.128.082.082 0 0 0-.118-.003c-.187.2-.38.386-.58.573-.087-.044-.307.041-.53.216-.176.138-.302.293-.347.404-.113-.026-.325.107-.517.351-.157.206-.249.42-.247.553-.12.01-.296.165-.446.41-.097.162-.16.319-.18.448a1.243 1.243 0 0 0-.31.354c-.135.223-.202.45-.18.578-.033.058-.065.11-.09.165l.015-.131c.191-1.514.47-3.011.892-4.456.425-1.441.935-2.894 1.81-4.06l.003-.006a.166.166 0 0 0-.015-.21.138.138 0 0 0-.205-.004 6.564 6.564 0 0 0-.784 1.05c-.1-.053-.31.145-.47.453-.147.278-.2.535-.145.634 0 0-.002.009-.008.006-.104-.045-.299.189-.417.502-.115.294-.136.566-.058.656-.004.005-.004.008-.007.013-.119-.043-.31.226-.428.606-.097.322-.108.6-.037.712.005.006 0 .02-.005.017-.12-.043-.305.233-.412.61-.108.364-.1.687.003.75-.118-.014-.284.262-.37.637-.08.325-.07.604.004.716-.115.034-.243.305-.309.655-.063.343-.03.627.053.718-.108.055-.218.334-.258.68-.039.343.011.624.1.715-.089.1-.176.34-.213.627-.036.273-.013.51.04.643-.097.082-.17.36-.173.691-.008.265.031.491.1.622a1.554 1.554 0 0 0-.09.541c-.005.28.04.518.11.643-.02.982-.008 2.026.045 3.008h2.118c.016-.764.065-1.6.142-2.357.15-1.349.372-2.72 1.047-3.873l.005-.008a.114.114 0 0 0-.013-.128c-.039-.035-.095-.035-.13.009-.917 1.063-1.319 2.505-1.555 3.89-.042.27-.076.543-.108.816.058-1.111.16-2.218.415-3.27.291-1.28.874-2.5 1.984-3.183a.1.1 0 0 0 .04-.111c-.014-.05-.066-.08-.11-.067-.072.021-.138.058-.205.088-.074-.09-.344-.024-.622.154-.266.172-.44.386-.423.502 0 .006-.013.014-.013.003-.003-.014-.005-.026-.013-.035-.1-.081-.368.105-.593.42-.229.316-.318.646-.22.732.004.002.002.01-.004.01-.118-.047-.315.22-.438.596-.089.262-.11.504-.079.643 0 .005-.005.01-.005.01-.092.302-.168.608-.239.918.027-.438.066-.878.13-1.314.186-1.255.563-2.483 1.235-3.529zm6.664-3.498a.746.746 0 0 0-.486-.038.811.811 0 0 0-.326.17.885.885 0 0 0-.018-.345.831.831 0 0 0-.252-.448c-.572-.572-.178-2.292-.312-2.313-.13-.018-.084 1.697-.355 2.498a.928.928 0 0 0-.018.53.882.882 0 0 0 .26.45c.113.1.25.144.378.104a.217.217 0 0 0 .097-.043c0 .022 0 .043.003.064a.45.45 0 0 0 .265.314.722.722 0 0 0 .488.037.783.783 0 0 0 .428-.26c.538-.624 1.803-1.514 1.726-1.634-.076-.117-1.144 1.196-1.878.914zm2.445-2.165c-.08-.117-1.094 1.065-1.784.77a.643.643 0 0 0-.452-.043.69.69 0 0 0-.236.133c-.002-.048 0-.09-.01-.133a.707.707 0 0 0-.255-.397c-.577-.505-.123-2.041-.26-2.057-.139-.017-.136 1.511-.435 2.228a.684.684 0 0 0-.037.468.72.72 0 0 0 .254.401.486.486 0 0 0 .394.093.485.485 0 0 0 .16-.082c0 .008-.002.019 0 .027a.529.529 0 0 0 .271.327.638.638 0 0 0 .445.037.625.625 0 0 0 .366-.26c.427-.64 1.661-1.39 1.58-1.512zm.25-1.48c-.09-.094-.817 1.123-1.475.977a.55.55 0 0 0-.399.04.517.517 0 0 0-.168.117c0-.03.008-.058.008-.09a.676.676 0 0 0-.17-.393c-.444-.543.173-1.825.054-1.866-.12-.035-.33 1.315-.698 1.902a.632.632 0 0 0-.094.412c.01.158.076.299.168.397.094.098.21.15.336.144a.37.37 0 0 0 .243-.12.438.438 0 0 0 .324.409c.123.04.27.03.401-.034a.597.597 0 0 0 .283-.293c.29-.64 1.273-1.51 1.187-1.602zm-.436-1.69c-.15-.106-.625 1.075-1.189 1.383a.683.683 0 0 0-.275.296.718.718 0 0 0-.079.415c.013.124.071.23.163.284a.317.317 0 0 0 .314-.002.671.671 0 0 0 .282-.299.754.754 0 0 0 .078-.412c-.042-.668.811-1.6.706-1.665zM30.08 41.948h-5.944a6.147 6.147 0 0 1-1.102-.091c.977 1.45 2.506 2.552 4.057 3.29.24 1.322.538 2.547.646 2.643.11.096 1.632-.342 1.68-.483.044-.14-.622-2.407-.622-2.407.8-1.375 1.047-2.184 1.285-2.953zm14.954 10.169c-1.5.593-3.459.642-5.057.218-3.66-1.14-7.726-3.3-11.629-1.508-3.902-1.793-7.967.367-11.628 1.508-1.599.424-3.557.375-5.058-.218a.038.038 0 0 0-.036.066c2.16 1.67 5.186 2.44 7.91 1.456 2.616-.816 4.83-3.587 7.928-2.404-2.454.959-4.747 2.729-6.519 4.399l1.29 1.058c1.608-1.873 3.418-3.746 5.468-4.886.281-.166.45-.232.645-.242.197.01.365.077.644.242 2.052 1.14 3.863 3.012 5.471 4.886l1.29-1.058c-1.773-1.67-4.066-3.44-6.52-4.4 3.1-1.182 5.312 1.59 7.928 2.404 2.725.984 5.75.215 7.91-1.456.034-.029.005-.081-.037-.066zm-24.128-2.526c-3.827-.926-4.874-4.514-8.073-6.07-.034-.018-.07.022-.05.053 1.008 1.657 1.554 4.197 4.46 5.764.022.011.01.05-.017.041-4.167-.802-5.918.313-10.285-1.66-.036-.017-.076.023-.053.059 1.436 2.082 4.843 3.506 9.51 3.113 1.678-.143 2.896-.85 4.508-1.227.04-.01.04-.065 0-.072zm-8.015-2.2c-1.454-1.905-1.04-5.972-4.323-9.695-.026-.029-.073-.006-.065.031.627 2.742.441 5.858 2.157 8.14.016.023-.008.047-.03.032-3.387-2.666-6.867-3.468-8.415-5.625-.024-.03-.07-.014-.066.023.383 2.794 5.747 7.145 10.713 7.154.03 0 .047-.035.03-.06zm-5.084-5.064c-1.559-2.89.305-7.302-1.464-11.588-.018-.044-.087-.034-.087.015-.052 2.34-1.506 5.835-.627 8.473.01.023-.02.036-.034.015-2.239-3.27-4.016-3.954-5.496-6.948-.02-.044-.089-.032-.09.015-.096 2.035.804 3.694 1.82 5.235a17.38 17.38 0 0 0 5.93 4.837c.032.016.064-.02.048-.053zM6.75 24.722c-.003-.048-.066-.064-.09-.021-1.189 2.223-3.306 3.994-3.375 6.93-.002.03-.034.032-.039.005C2.86 29.369.935 26.83.851 23.547c0-.05-.07-.063-.089-.016-1.582 4.267.693 8.314 3.116 11.656.026.034.078.014.078-.032-.099-3.541 2.971-6.185 2.793-10.433zm1.511-5.521c-1.123 1.56-3.65 2.662-4.574 4.912-.013.032-.052.024-.047-.012.367-2.523-.606-5.45.307-8.801.013-.048-.047-.08-.077-.043-1.38 1.699-1.847 3.688-1.923 5.839-.095 2.64.835 4.567 1.294 6.357.01.044.065.04.076-.002.661-2.349 3.981-3.762 5.02-8.213.013-.047-.047-.078-.076-.037zm3.047-5.245c-1.847 1.447-4.669 2.843-5.275 3.85-.01.02-.042.005-.037-.017l.685-3.287c.308-1.395.572-2.73 1.344-3.98.024-.037-.02-.08-.055-.053-3.517 2.786-3.002 6.813-3.157 10.11-.003.035.04.052.063.027 2.071-2.245 5.446-3.553 6.49-6.606.013-.037-.026-.069-.058-.044zm2.617-5.05c-3.108.1-5.39 2.716-6.37 6.048-.005.02.021.034.037.024 4.28-3.137 4.042-4.482 6.36-5.976.041-.027.022-.096-.027-.096zM49.752 47.72c-4.365 1.974-6.117.86-10.285 1.661-.026.008-.039-.03-.016-.041 2.906-1.566 3.452-4.106 4.46-5.764.02-.032-.017-.072-.05-.053-3.197 1.556-4.245 5.144-8.073 6.07-.04.008-.04.063 0 .074 1.611.377 2.83 1.084 4.508 1.227 4.667.392 8.076-1.032 9.508-3.114.024-.036-.015-.076-.052-.06zm4.727-7.444c-1.549 2.157-5.029 2.96-8.414 5.625-.02.016-.048-.008-.029-.032 1.714-2.282 1.527-5.398 2.155-8.14.008-.037-.04-.06-.066-.03-3.28 3.722-2.868 7.79-4.32 9.694a.037.037 0 0 0 .03.06c4.965-.008 10.326-4.36 10.71-7.154.005-.038-.043-.053-.066-.023zm2.207-7.965c-.003-.047-.07-.06-.092-.015-1.48 2.994-3.257 3.677-5.493 6.948-.016.021-.045.008-.037-.016.88-2.637-.572-6.133-.627-8.472 0-.049-.068-.06-.087-.014-1.768 4.285.095 8.697-1.462 11.587-.018.034.014.07.048.053a17.4 17.4 0 0 0 5.93-4.836c1.014-1.54 1.914-3.2 1.82-5.235zm-.756-8.779c-.019-.046-.089-.034-.089.017-.084 3.282-2.008 5.822-2.394 8.088-.005.027-.037.024-.037-.005-.068-2.936-2.188-4.707-3.377-6.93-.024-.043-.086-.027-.086.021-.179 4.248 2.89 6.892 2.79 10.434 0 .047.054.066.08.032 2.42-3.343 4.695-7.389 3.113-11.657zm-1.184-2.435c-.076-2.15-.543-4.14-1.923-5.838-.029-.037-.087-.005-.077.042.914 3.35-.06 6.278.31 8.8.005.037-.037.045-.05.013-.923-2.25-3.45-3.352-4.574-4.912-.026-.04-.087-.01-.076.037 1.04 4.45 4.36 5.864 5.02 8.213.011.043.066.046.076.002.46-1.79 1.39-3.716 1.294-6.357zM48.723 10.47c-.034-.026-.078.017-.055.054.772 1.248 1.037 2.585 1.344 3.98l.685 3.287c.005.02-.026.037-.037.015-.606-1.006-3.425-2.402-5.275-3.85-.029-.024-.07.008-.058.046 1.045 3.053 4.42 4.36 6.491 6.606.023.024.065.008.063-.027-.155-3.298.36-7.325-3.158-10.11zm-5.955-1.563c-.049 0-.065.07-.026.096 2.318 1.493 2.08 2.838 6.36 5.976.018.01.041-.005.036-.024-.979-3.332-3.262-5.949-6.37-6.048z" fill="#000" mask="url(#b)"/></g></svg>